<mxfile host="app.diagrams.net" agent="Mozilla/5.0 (Windows NT 10.0; Win64; x64) AppleWebKit/537.36 (KHTML, like Gecko) Chrome/131.0.0.0 Safari/537.36" version="24.8.6">
  <diagram name="Сторінка-1" id="r3FNT9_3SlGGcJdbVbIS">
    <mxGraphModel dx="1432" dy="820" grid="1" gridSize="10" guides="1" tooltips="1" connect="1" arrows="1" fold="1" page="1" pageScale="1" pageWidth="827" pageHeight="1169" math="0" shadow="0">
      <root>
        <mxCell id="0" />
        <mxCell id="1" parent="0" />
        <mxCell id="PE8S-j3qtNkAMNiLi-mf-16" style="edgeStyle=orthogonalEdgeStyle;rounded=0;orthogonalLoop=1;jettySize=auto;html=1;" edge="1" parent="1" source="PE8S-j3qtNkAMNiLi-mf-1" target="PE8S-j3qtNkAMNiLi-mf-2">
          <mxGeometry relative="1" as="geometry" />
        </mxCell>
        <mxCell id="PE8S-j3qtNkAMNiLi-mf-1" value="start" style="ellipse;whiteSpace=wrap;html=1;" vertex="1" parent="1">
          <mxGeometry x="354" y="20" width="120" height="80" as="geometry" />
        </mxCell>
        <mxCell id="PE8S-j3qtNkAMNiLi-mf-17" style="edgeStyle=orthogonalEdgeStyle;rounded=0;orthogonalLoop=1;jettySize=auto;html=1;" edge="1" parent="1" source="PE8S-j3qtNkAMNiLi-mf-2" target="PE8S-j3qtNkAMNiLi-mf-3">
          <mxGeometry relative="1" as="geometry" />
        </mxCell>
        <mxCell id="PE8S-j3qtNkAMNiLi-mf-2" value="&amp;nbsp;const int n = 5;" style="rounded=0;whiteSpace=wrap;html=1;" vertex="1" parent="1">
          <mxGeometry x="354" y="180" width="120" height="60" as="geometry" />
        </mxCell>
        <mxCell id="PE8S-j3qtNkAMNiLi-mf-18" style="edgeStyle=orthogonalEdgeStyle;rounded=0;orthogonalLoop=1;jettySize=auto;html=1;" edge="1" parent="1" source="PE8S-j3qtNkAMNiLi-mf-3" target="PE8S-j3qtNkAMNiLi-mf-4">
          <mxGeometry relative="1" as="geometry" />
        </mxCell>
        <mxCell id="PE8S-j3qtNkAMNiLi-mf-3" value="&amp;nbsp;double x[n] = { 1.2, -0.8, 2.3, 4.0, 3.1 };" style="rounded=0;whiteSpace=wrap;html=1;" vertex="1" parent="1">
          <mxGeometry x="354" y="320" width="120" height="60" as="geometry" />
        </mxCell>
        <mxCell id="PE8S-j3qtNkAMNiLi-mf-19" style="edgeStyle=orthogonalEdgeStyle;rounded=0;orthogonalLoop=1;jettySize=auto;html=1;" edge="1" parent="1" source="PE8S-j3qtNkAMNiLi-mf-4" target="PE8S-j3qtNkAMNiLi-mf-5">
          <mxGeometry relative="1" as="geometry" />
        </mxCell>
        <mxCell id="PE8S-j3qtNkAMNiLi-mf-4" value="double S = 0;" style="rounded=0;whiteSpace=wrap;html=1;" vertex="1" parent="1">
          <mxGeometry x="354" y="440" width="120" height="60" as="geometry" />
        </mxCell>
        <mxCell id="PE8S-j3qtNkAMNiLi-mf-20" style="edgeStyle=orthogonalEdgeStyle;rounded=0;orthogonalLoop=1;jettySize=auto;html=1;" edge="1" parent="1" source="PE8S-j3qtNkAMNiLi-mf-5" target="PE8S-j3qtNkAMNiLi-mf-6">
          <mxGeometry relative="1" as="geometry" />
        </mxCell>
        <mxCell id="PE8S-j3qtNkAMNiLi-mf-5" value="start for" style="ellipse;whiteSpace=wrap;html=1;" vertex="1" parent="1">
          <mxGeometry x="354" y="570" width="120" height="80" as="geometry" />
        </mxCell>
        <mxCell id="PE8S-j3qtNkAMNiLi-mf-22" style="edgeStyle=orthogonalEdgeStyle;rounded=0;orthogonalLoop=1;jettySize=auto;html=1;" edge="1" parent="1" source="PE8S-j3qtNkAMNiLi-mf-6" target="PE8S-j3qtNkAMNiLi-mf-7">
          <mxGeometry relative="1" as="geometry" />
        </mxCell>
        <mxCell id="PE8S-j3qtNkAMNiLi-mf-24" style="edgeStyle=orthogonalEdgeStyle;rounded=0;orthogonalLoop=1;jettySize=auto;html=1;entryX=1;entryY=0.5;entryDx=0;entryDy=0;" edge="1" parent="1" source="PE8S-j3qtNkAMNiLi-mf-6" target="PE8S-j3qtNkAMNiLi-mf-8">
          <mxGeometry relative="1" as="geometry">
            <mxPoint x="580" y="1042" as="targetPoint" />
            <Array as="points">
              <mxPoint x="560" y="750" />
              <mxPoint x="560" y="771" />
              <mxPoint x="620" y="771" />
              <mxPoint x="620" y="1042" />
              <mxPoint x="480" y="1042" />
            </Array>
          </mxGeometry>
        </mxCell>
        <mxCell id="PE8S-j3qtNkAMNiLi-mf-6" value="int i = 0; i &amp;lt; n; i++" style="rhombus;whiteSpace=wrap;html=1;" vertex="1" parent="1">
          <mxGeometry x="374" y="710" width="80" height="80" as="geometry" />
        </mxCell>
        <mxCell id="PE8S-j3qtNkAMNiLi-mf-23" style="edgeStyle=orthogonalEdgeStyle;rounded=0;orthogonalLoop=1;jettySize=auto;html=1;entryX=0.15;entryY=0.575;entryDx=0;entryDy=0;entryPerimeter=0;" edge="1" parent="1" source="PE8S-j3qtNkAMNiLi-mf-7" target="PE8S-j3qtNkAMNiLi-mf-6">
          <mxGeometry relative="1" as="geometry">
            <mxPoint x="350" y="730" as="targetPoint" />
            <Array as="points">
              <mxPoint x="260" y="890" />
              <mxPoint x="260" y="796" />
              <mxPoint x="351" y="796" />
              <mxPoint x="351" y="756" />
            </Array>
          </mxGeometry>
        </mxCell>
        <mxCell id="PE8S-j3qtNkAMNiLi-mf-7" value="S += x[i];" style="rounded=0;whiteSpace=wrap;html=1;" vertex="1" parent="1">
          <mxGeometry x="354" y="860" width="120" height="60" as="geometry" />
        </mxCell>
        <mxCell id="PE8S-j3qtNkAMNiLi-mf-25" style="edgeStyle=orthogonalEdgeStyle;rounded=0;orthogonalLoop=1;jettySize=auto;html=1;" edge="1" parent="1" source="PE8S-j3qtNkAMNiLi-mf-8" target="PE8S-j3qtNkAMNiLi-mf-9">
          <mxGeometry relative="1" as="geometry" />
        </mxCell>
        <mxCell id="PE8S-j3qtNkAMNiLi-mf-8" value="end for" style="ellipse;whiteSpace=wrap;html=1;" vertex="1" parent="1">
          <mxGeometry x="360" y="990" width="120" height="80" as="geometry" />
        </mxCell>
        <mxCell id="PE8S-j3qtNkAMNiLi-mf-26" style="edgeStyle=orthogonalEdgeStyle;rounded=0;orthogonalLoop=1;jettySize=auto;html=1;entryX=0.5;entryY=0;entryDx=0;entryDy=0;" edge="1" parent="1" source="PE8S-j3qtNkAMNiLi-mf-9" target="PE8S-j3qtNkAMNiLi-mf-10">
          <mxGeometry relative="1" as="geometry" />
        </mxCell>
        <mxCell id="PE8S-j3qtNkAMNiLi-mf-9" value="&amp;nbsp;ofstream fout(&quot;result1.txt&quot;);" style="rounded=0;whiteSpace=wrap;html=1;" vertex="1" parent="1">
          <mxGeometry x="360" y="1170" width="120" height="60" as="geometry" />
        </mxCell>
        <mxCell id="PE8S-j3qtNkAMNiLi-mf-27" style="edgeStyle=orthogonalEdgeStyle;rounded=0;orthogonalLoop=1;jettySize=auto;html=1;" edge="1" parent="1" source="PE8S-j3qtNkAMNiLi-mf-10" target="PE8S-j3qtNkAMNiLi-mf-11">
          <mxGeometry relative="1" as="geometry" />
        </mxCell>
        <mxCell id="PE8S-j3qtNkAMNiLi-mf-10" value="&amp;nbsp;fout &amp;lt;&amp;lt; &quot;S = &quot; &amp;lt;&amp;lt; S &amp;lt;&amp;lt; endl;" style="rounded=0;whiteSpace=wrap;html=1;" vertex="1" parent="1">
          <mxGeometry x="360" y="1280" width="120" height="60" as="geometry" />
        </mxCell>
        <mxCell id="PE8S-j3qtNkAMNiLi-mf-28" style="edgeStyle=orthogonalEdgeStyle;rounded=0;orthogonalLoop=1;jettySize=auto;html=1;" edge="1" parent="1" source="PE8S-j3qtNkAMNiLi-mf-11" target="PE8S-j3qtNkAMNiLi-mf-12">
          <mxGeometry relative="1" as="geometry" />
        </mxCell>
        <mxCell id="PE8S-j3qtNkAMNiLi-mf-11" value="&amp;nbsp;fout &amp;lt;&amp;lt; &quot;Z = &quot; &amp;lt;&amp;lt; Z &amp;lt;&amp;lt; endl;" style="rounded=0;whiteSpace=wrap;html=1;" vertex="1" parent="1">
          <mxGeometry x="360" y="1390" width="120" height="60" as="geometry" />
        </mxCell>
        <mxCell id="PE8S-j3qtNkAMNiLi-mf-29" style="edgeStyle=orthogonalEdgeStyle;rounded=0;orthogonalLoop=1;jettySize=auto;html=1;" edge="1" parent="1" source="PE8S-j3qtNkAMNiLi-mf-12" target="PE8S-j3qtNkAMNiLi-mf-14">
          <mxGeometry relative="1" as="geometry" />
        </mxCell>
        <mxCell id="PE8S-j3qtNkAMNiLi-mf-12" value="&amp;nbsp;fout.close();" style="rounded=0;whiteSpace=wrap;html=1;" vertex="1" parent="1">
          <mxGeometry x="360" y="1500" width="120" height="60" as="geometry" />
        </mxCell>
        <mxCell id="PE8S-j3qtNkAMNiLi-mf-30" style="edgeStyle=orthogonalEdgeStyle;rounded=0;orthogonalLoop=1;jettySize=auto;html=1;" edge="1" parent="1" source="PE8S-j3qtNkAMNiLi-mf-14" target="PE8S-j3qtNkAMNiLi-mf-15">
          <mxGeometry relative="1" as="geometry" />
        </mxCell>
        <mxCell id="PE8S-j3qtNkAMNiLi-mf-14" value="cout" style="shape=parallelogram;perimeter=parallelogramPerimeter;whiteSpace=wrap;html=1;fixedSize=1;" vertex="1" parent="1">
          <mxGeometry x="360" y="1620" width="120" height="60" as="geometry" />
        </mxCell>
        <mxCell id="PE8S-j3qtNkAMNiLi-mf-15" value="end" style="ellipse;whiteSpace=wrap;html=1;" vertex="1" parent="1">
          <mxGeometry x="354" y="1740" width="120" height="80" as="geometry" />
        </mxCell>
      </root>
    </mxGraphModel>
  </diagram>
</mxfile>
